<svg id="Capa_1" data-name="Capa 1" xmlns="http://www.w3.org/2000/svg" viewBox="0 0 512 487.62"><defs><style>.cls-1{fill:#333;}</style></defs><title>controls</title><path class="cls-1" d="M16.41,93.15h85.85a64.55,64.55,0,0,0,124.85,0H495.59a16.41,16.41,0,0,0,0-32.82H227.11a64.55,64.55,0,0,0-124.85,0H16.41A16.41,16.41,0,0,0,16.41,93.15ZM164.68,45A31.73,31.73,0,1,1,133,76.74,31.76,31.76,0,0,1,164.68,45Z" transform="translate(0 -12.19)"/><path class="cls-1" d="M495.59,239.59H386.21a64.55,64.55,0,0,0-124.85,0H16.41a16.41,16.41,0,0,0,0,32.82H261.36a64.55,64.55,0,0,0,124.85,0H495.59A16.41,16.41,0,1,0,495.59,239.59Zm-171.8,48.14A31.73,31.73,0,1,1,355.51,256,31.76,31.76,0,0,1,323.79,287.73Z" transform="translate(0 -12.19)"/><path class="cls-1" d="M495.59,418.85H227.11a64.55,64.55,0,0,0-124.85,0H16.41a16.41,16.41,0,0,0,0,32.82h85.85a64.55,64.55,0,0,0,124.85,0H495.59A16.41,16.41,0,0,0,495.59,418.85ZM164.68,467a31.73,31.73,0,1,1,31.73-31.73A31.76,31.76,0,0,1,164.68,467Z" transform="translate(0 -12.19)"/></svg>