<?xml version="1.0" encoding="utf-8"?>
<!DOCTYPE svg PUBLIC "-//W3C//DTD SVG 1.1//EN" "http://www.w3.org/Graphics/SVG/1.1/DTD/svg11.dtd">
<svg version="1.1" id="Layer_1" xmlns="http://www.w3.org/2000/svg" xmlns:xlink="http://www.w3.org/1999/xlink" x="0px" y="0px"
	 width="200px" height="200px" viewBox="0 0 200 200" enable-background="new 0 0 198.6 200" xml:space="preserve">
<rect x="0" fill="#F0F3F9" width="200" height="200"/>
<g>
	<path fill="#D2DAE7" d="M173.7,160h-2.8v-46.5l1.8,0.8c0.3,0.1,0.7,0.2,1,0.2c1,0,1.9-0.6,2.3-1.5c0.5-1.3,0-2.7-1.3-3.3l-41-17.6
		V84l1.6,0.9c0.4,0.2,0.8,0.3,1.2,0.3c0.9,0,1.7-0.5,2.2-1.3c0.7-1.2,0.3-2.7-0.9-3.4l-35.9-20.5v-6.7h24.1c0.9,0,1.8-0.5,2.2-1.3
		c0.4-0.8,0.4-1.8-0.1-2.6l-4.4-6.6l4.4-6.6c0.5-0.8,0.6-1.7,0.1-2.6c-0.4-0.8-1.3-1.3-2.2-1.3h-24.1v-2.8c0-1.4-1.1-2.5-2.5-2.5
		c-1.4,0-2.5,1.1-2.5,2.5v30.4L60.9,80.6c-1.2,0.7-1.6,2.2-0.9,3.4c0.7,1.2,2.2,1.6,3.4,0.9l1.6-0.9v8.1l-41,17.6
		c-1.3,0.5-1.8,2-1.3,3.3c0.4,0.9,1.3,1.5,2.3,1.5c0.3,0,0.7-0.1,1-0.2l1.8-0.8V160h-2.8c-1.4,0-2.5,1.1-2.5,2.5
		c0,1.4,1.1,2.5,2.5,2.5h40v2.8c0,1.4,1.1,2.5,2.5,2.5h63.7c1.4,0,2.5-1.1,2.5-2.5v-2.8h40c1.4,0,2.5-1.1,2.5-2.5
		C176.1,161.1,175,160,173.7,160L173.7,160z M165.9,111.4v38h-8.3v-26.1c0-1.7-1.4-3.2-3.2-3.2h-9.3c-1.7,0-3.2,1.4-3.2,3.2v26.1
		h-8.3V97.6L165.9,111.4z M152.6,130.8h-5.6v-5.6h5.6V130.8z M146.9,135.7h5.6v13.6h-5.6V135.7z M121.2,37.5l-2.7,4.1
		c-0.6,0.8-0.6,1.9,0,2.8l2.7,4.1h-19.4v-11H121.2z M99.3,64.4l29.4,16.8c0,0.1,0,0.2,0,0.4v73.1h-11v-21.4c0-1.4-1.1-2.5-2.5-2.5
		H83.4c-1.4,0-2.5,1.1-2.5,2.5v21.4h-11V81.6c0-0.1,0-0.2,0-0.4L99.3,64.4z M85.9,135.7h11v29.5h-11V135.7z M101.8,135.7h11v29.5
		h-11V135.7z M64.9,97.6v51.8h-8.3v-26.1c0-1.7-1.4-3.2-3.2-3.2h-9.3c-1.7,0-3.2,1.4-3.2,3.2v26.1h-8.3v-38L64.9,97.6z M51.7,130.8
		H46v-5.6h5.6V130.8z M46,135.7h5.6v13.6H46V135.7z M32.7,160v-5.6h32.2v5.6H32.7z M69.9,159.6h11v5.6h-11V159.6z M128.7,165.3h-11
		v-5.6h11V165.3z M133.7,154.3h32.2v5.6h-32.2V154.3z M133.7,154.3"/>
	<path fill="#D2DAE7" d="M83.4,125.1H94c1.4,0,2.5-1.1,2.5-2.5V94.1c0-1.7-1.4-3.2-3.2-3.2H84c-1.7,0-3.2,1.4-3.2,3.2v28.5
		C80.9,124,82,125.1,83.4,125.1L83.4,125.1z M85.9,120.1v-13.6h5.6v13.6H85.9z M91.5,95.9v5.6h-5.6v-5.6H91.5z M91.5,95.9"/>
	<path fill="#D2DAE7" d="M104.6,125.1h10.6c1.4,0,2.5-1.1,2.5-2.5V94.1c0-1.7-1.4-3.2-3.2-3.2h-9.3c-1.7,0-3.2,1.4-3.2,3.2v28.5
		C102.1,124,103.2,125.1,104.6,125.1L104.6,125.1z M107.1,120.1v-13.6h5.6v13.6H107.1z M112.7,95.9v5.6h-5.6v-5.6H112.7z
		 M112.7,95.9"/>
</g>
</svg>
