<?xml version="1.0" encoding="utf-8"?>
<!-- Generator: Adobe Illustrator 17.1.0, SVG Export Plug-In . SVG Version: 6.00 Build 0)  -->
<!DOCTYPE svg PUBLIC "-//W3C//DTD SVG 1.1//EN" "http://www.w3.org/Graphics/SVG/1.1/DTD/svg11.dtd">
<svg version="1.1" id="Layer_1" xmlns="http://www.w3.org/2000/svg" xmlns:xlink="http://www.w3.org/1999/xlink" x="0px" y="0px"
	 width="50px" height="50px" viewBox="0 0 50 50" enable-background="new 0 0 50 50" xml:space="preserve">
<rect fill="#F0F3FA" width="50" height="50"/>
<path fill="#D2DBE7" d="M42.3,39h-1v-6.6c0-0.5-0.4-0.8-0.8-0.8H40v-1c0-0.8-0.6-1.4-1.4-1.4h-2.3v-7.2c0-0.5-0.4-0.8-0.8-0.8h-0.5
	c-0.3-0.8-0.9-1.5-1.7-1.7v-3.6c0-0.5-0.4-0.8-0.8-0.8c-0.5,0-0.8,0.4-0.8,0.8v3.6c-0.6,0.2-1.1,0.6-1.5,1.2v-4.2
	c0-0.3-0.1-0.5-0.4-0.7l-7-4.1v-1.4c0-0.5-0.4-0.8-0.8-0.8c-0.5,0-0.8,0.4-0.8,0.8v9h-3.5c-0.5,0-0.8,0.4-0.8,0.8v6.8L10,28.5
	c-0.4,0.1-0.6,0.4-0.6,0.8V39H7.7c-0.5,0-0.8,0.4-0.8,0.8s0.4,0.8,0.8,0.8h34.5c0.5,0,0.8-0.4,0.8-0.8C43.1,39.3,42.7,39,42.3,39z
	 M32.8,37.5V39h-2.7v-1.5H32.8z M35.7,31.6v-0.9h2.7v0.9H35.7z M39.6,33.2v5.7h-5.1v-5.7H39.6z M34.7,29.4c-0.1,0.1-0.3,0.2-0.4,0.4
	h-4.2v-4.5h4.5V29.4z M30.1,23.6v-0.8h0.4c0.5,0,0.8-0.4,0.8-0.8c0-0.6,0.5-1,1-1c0.6,0,1,0.5,1,1c0,0.5,0.4,0.8,0.8,0.8h0.4v0.8
	H30.1z M34,31.3v0.2h-0.4c-0.5,0-0.8,0.4-0.8,0.8v3.5h-2.7v-4.5H34z M23.6,35.7V39h-5.1v-3.3H23.6z M23.6,30.8V34h-5.1v-3.2H23.6z
	 M23.6,25.9v3.1h-5.1v-3.1H23.6z M23.6,21v3.2h-5.1V21H23.6z M24.4,19.2h-1.6v-5.8l5.8,3.4V39h-3.3V20
	C25.2,19.6,24.9,19.2,24.4,19.2z M13.8,30.3c-0.5,0-0.8,0.4-0.8,0.8V39h-2v-9l5.8-1.4V39h-2.1v-7.8C14.6,30.7,14.3,30.3,13.8,30.3z"
	/>
</svg>
