<?xml version="1.0" encoding="utf-8"?>
<!DOCTYPE svg PUBLIC "-//W3C//DTD SVG 1.1//EN" "http://www.w3.org/Graphics/SVG/1.1/DTD/svg11.dtd">
<svg version="1.1" id="Layer_1" xmlns="http://www.w3.org/2000/svg" xmlns:xlink="http://www.w3.org/1999/xlink" x="0px" y="0px"
	 width="50px" height="50px" viewBox="0 0 50 50" enable-background="new 0 0 50 50" xml:space="preserve">
<rect fill="#F0F3FA" width="50" height="50"/>
<g>
	<path fill="#D2DAE7" d="M43.9,40.1h-0.5V28.9l0.2,0.1c0.4,0.2,0.9,0,1.1-0.4c0.1-0.2,0.1-0.4,0-0.6s-0.2-0.4-0.5-0.5L33.9,23v-1.5
		l0.1,0c0.4,0.2,0.9,0.1,1.2-0.3c0.1-0.2,0.1-0.4,0.1-0.6s-0.2-0.4-0.4-0.5l-9-5.1v-1.4h5.9c0.3,0,0.6-0.2,0.7-0.4
		c0.1-0.3,0.1-0.6,0-0.9l-1-1.6l1-1.5c0.2-0.3,0.2-0.6,0-0.9C32.3,8,32,7.8,31.7,7.8h-5.9V7.3c0-0.5-0.4-0.8-0.8-0.8
		c-0.5,0-0.8,0.4-0.8,0.8v7.6l-9,5.1c-0.2,0.1-0.3,0.3-0.4,0.5c-0.1,0.2,0,0.4,0.1,0.6c0.2,0.4,0.8,0.5,1.2,0.3l0.1,0V23L5.8,27.4
		c-0.2,0.1-0.4,0.3-0.5,0.5s-0.1,0.4,0,0.6c0.2,0.4,0.7,0.6,1.1,0.4l0.2-0.1v11.2H6.1c-0.5,0-0.8,0.4-0.8,0.8s0.4,0.8,0.8,0.8h9.9
		v0.5c0,0.5,0.4,0.8,0.8,0.8h16.2c0.5,0,0.8-0.4,0.8-0.8v-0.5h9.9c0.5,0,0.8-0.4,0.8-0.8S44.3,40.1,43.9,40.1z M28.2,34.4v7.1h-2.3
		v-7.1H28.2z M24.2,34.4v7.1h-2.3v-7.1H24.2z M29.7,10.2c-0.2,0.3-0.2,0.7,0,0.9l0.5,0.7h-4.3V9.5h4.3L29.7,10.2z M29,32.7H21
		c-0.5,0-0.8,0.4-0.8,0.8v5.2h-2.3V20.5l7.2-4.1l7.2,4.1v18.3h-2.3v-5.2C29.9,33.1,29.5,32.7,29,32.7z M20.1,40.5v1h-2.3v-1H20.1z
		 M32.2,40.5v1h-2.3v-1H32.2z M41.7,39.1v1h-7.7v-1H41.7z M39,30h-2.4c-0.6,0-1,0.5-1,1v6.4h-1.7V24.9l7.7,3.3v9.3H40v-6.4
		C40,30.5,39.5,30,39,30z M38.3,34.4v3h-1v-3H38.3z M38.3,31.7v1h-1v-1H38.3z M16.1,39.1v1H8.3v-1H16.1z M12.7,34.4v3h-1v-3H12.7z
		 M12.7,31.7v1h-1v-1H12.7z M13.4,30H11c-0.6,0-1,0.5-1,1v6.4H8.3v-9.3l7.7-3.3v12.6h-1.7v-6.4C14.4,30.5,13.9,30,13.4,30z"/>
	<path fill="#D2DAE7" d="M23.5,22.6h-2.4c-0.6,0-1,0.5-1,1v7.2c0,0.5,0.4,0.8,0.8,0.8h2.7c0.5,0,0.8-0.4,0.8-0.8v-7.2
		C24.5,23.1,24,22.6,23.5,22.6z M22.8,27v3h-1v-3H22.8z M22.8,24.3v1h-1v-1H22.8z"/>
	<path fill="#D2DAE7" d="M29.9,23.6c0-0.6-0.5-1-1-1h-2.4c-0.6,0-1,0.5-1,1v7.2c0,0.5,0.4,0.8,0.8,0.8H29c0.5,0,0.8-0.4,0.8-0.8
		V23.6z M28.2,27v3h-1v-3H28.2z M28.2,24.3v1h-1v-1H28.2z"/>
</g>
</svg>