<svg id="Layer_1" data-name="Layer 1" xmlns="http://www.w3.org/2000/svg" viewBox="0 0 230 46.3"><defs><style>.cls-1{fill:#53bc7f;}.cls-2{fill:#171917;}</style></defs><title>logo-black</title><path class="cls-1" d="M35,5.4A22,22,0,0,0,20.5,0,21.59,21.59,0,0,0,6,5.5,17.24,17.24,0,0,0,0,18.7,19.13,19.13,0,0,0,5.2,31.8L18.4,45.4a3.12,3.12,0,0,0,2.1.9,2.79,2.79,0,0,0,1.8-.6,2.09,2.09,0,0,0,.9-1.7,2.41,2.41,0,0,0-.7-1.8L9.5,28.6a14.6,14.6,0,0,1-3.9-9.9A12.46,12.46,0,0,1,10,9,15.78,15.78,0,0,1,31,9a12.46,12.46,0,0,1,4.4,9.7,14.18,14.18,0,0,1-3.9,9.8l-5.2,5L16.4,23.2a2.39,2.39,0,0,1-.5-1.4V21.1l0.2-.4a0.35,0.35,0,0,0,.1-0.2,1.51,1.51,0,0,1,.4-0.4,2.71,2.71,0,0,1,3.4.1l3.8,4a2.72,2.72,0,0,0,2.1.9,2.79,2.79,0,0,0,1.8-.6l0.3-.3,2.9-3a2.57,2.57,0,0,0,.7-1.8,2.33,2.33,0,0,0-1-1.7,3,3,0,0,0-1.8-.6,2.72,2.72,0,0,0-2.1.9l-0.7.8-1.5-1.6L24.3,17a8.55,8.55,0,0,0-6-2.4c-4.5,0-8.1,3.3-8.1,7.3A6.27,6.27,0,0,0,12,26.4l0.1,0.1L21,35.8l0.1,0.1,3.8,4a1.69,1.69,0,0,0,2.3,0l8.3-8.1,0.1-.1a19.13,19.13,0,0,0,5.2-13.1C41,13.5,39,9.1,35,5.4Z"/><path class="cls-2" d="M56.5,27v7.7a0.92,0.92,0,0,1-1,.9H51.8a1,1,0,0,1-1-.9V11.6a0.92,0.92,0,0,1,1-.9H62q4.65,0,7.2,2.1a7.3,7.3,0,0,1,2.6,5.9,6.39,6.39,0,0,1-1.3,4,7.7,7.7,0,0,1-3.6,2.8l4.9,8.7a0.94,0.94,0,0,1-.9,1.4H66.7a1.05,1.05,0,0,1-.9-0.5l-4.5-8.2a1.05,1.05,0,0,0-.9-0.5H57A0.56,0.56,0,0,0,56.5,27Zm0-11.6v6.5a0.65,0.65,0,0,0,.6.6h4.3a4.86,4.86,0,0,0,3.3-1.1,3.36,3.36,0,0,0,1.2-2.8,3.29,3.29,0,0,0-1.2-2.7,4.86,4.86,0,0,0-3.3-1.1H57.1A0.65,0.65,0,0,0,56.5,15.4Z"/><path class="cls-2" d="M88.3,29.7h3.1a1,1,0,0,1,1,1.2,7.1,7.1,0,0,1-2.7,3.3,11.49,11.49,0,0,1-6.4,1.7,10.42,10.42,0,0,1-7.4-2.6A9.81,9.81,0,0,1,73.2,26a9.81,9.81,0,0,1,2.7-7.3A9.81,9.81,0,0,1,83.2,16a9.68,9.68,0,0,1,7.1,2.6,9.2,9.2,0,0,1,2.6,7v0.7a0.92,0.92,0,0,1-1,.9H78.5v0.3a4.52,4.52,0,0,0,1.3,3.4,4.75,4.75,0,0,0,3.5,1.3,6,6,0,0,0,2.7-.6,3.25,3.25,0,0,0,1.3-1.3A1.22,1.22,0,0,1,88.3,29.7Zm-5.2-9.9A4.14,4.14,0,0,0,80,21a3.47,3.47,0,0,0-1.2,1.9,0.89,0.89,0,0,0,1,1.1h6.6a1,1,0,0,0,1-1.1A4,4,0,0,0,86.3,21,4.54,4.54,0,0,0,83.1,19.8Z"/><path class="cls-2" d="M113.4,23.4h-3.2a1,1,0,0,1-.9-0.7,3.6,3.6,0,0,0-1.2-1.8,4.37,4.37,0,0,0-2.9-.9,4.12,4.12,0,0,0-3.4,1.6,7.19,7.19,0,0,0-1.2,4.4,7.19,7.19,0,0,0,1.2,4.4,4.27,4.27,0,0,0,3.4,1.6,4.1,4.1,0,0,0,2.8-.9,2.91,2.91,0,0,0,1.2-1.8,1,1,0,0,1,.9-0.7h3.2a1,1,0,0,1,1,1.1,7,7,0,0,1-2.6,4.3,10.58,10.58,0,0,1-6.6,2,10.05,10.05,0,0,1-7.4-2.7A10,10,0,0,1,95,26a10,10,0,0,1,2.7-7.3,11.46,11.46,0,0,1,14-.6,7,7,0,0,1,2.6,4.3A0.82,0.82,0,0,1,113.4,23.4Z"/><path class="cls-2" d="M123.4,35.8a7.51,7.51,0,0,1-5-1.6,5.31,5.31,0,0,1-2-4.2,4.81,4.81,0,0,1,2.1-4.1c1.4-1,3.4-1.5,6.1-1.7l5.2-.3V22.6a2.39,2.39,0,0,0-1-2.1,4.33,4.33,0,0,0-2.7-.7,4.09,4.09,0,0,0-2.5.7,2.34,2.34,0,0,0-1,1.2,1.15,1.15,0,0,1-.9.6h-3.2a1,1,0,0,1-1-1.1,5.7,5.7,0,0,1,2.4-3.4,10.92,10.92,0,0,1,6.3-1.7,10.35,10.35,0,0,1,6.4,1.8,5.48,5.48,0,0,1,2.4,4.6V34.8a0.92,0.92,0,0,1-1,.9h-3.3a1,1,0,0,1-1-.9V32.7h-0.1A5.34,5.34,0,0,1,127,35,6.85,6.85,0,0,1,123.4,35.8Zm1.8-3.7a5.18,5.18,0,0,0,3.3-1,3,3,0,0,0,1.3-2.6V27.1l-4.3.3a5.77,5.77,0,0,0-2.6.7,2.06,2.06,0,0,0,0,3.4A3.71,3.71,0,0,0,125.2,32.1Z"/><path class="cls-2" d="M150.8,16.1a7.92,7.92,0,0,1,6.2,2.6,10.91,10.91,0,0,1,2.3,7.2,10.72,10.72,0,0,1-2.3,7.2,7.61,7.61,0,0,1-6.2,2.6,8,8,0,0,1-3.9-.9,5.71,5.71,0,0,1-2.5-2.6h-0.1v7.7a0.92,0.92,0,0,1-1,.9h-3.5a1,1,0,0,1-1-.9v-23a0.92,0.92,0,0,1,1-.9h3.4a1,1,0,0,1,1,.9v2.7h0.1a6.92,6.92,0,0,1,2.5-2.6A9.34,9.34,0,0,1,150.8,16.1Zm-1.1,15.6a4.1,4.1,0,0,0,2.7-1.5,6,6,0,0,0,1.3-4.2,6.67,6.67,0,0,0-1.1-3.9,4.59,4.59,0,0,0-4.3-1.8,4.1,4.1,0,0,0-2.7,1.5,6.21,6.21,0,0,0-1.3,4.2,6.67,6.67,0,0,0,1.1,3.9A4.69,4.69,0,0,0,149.7,31.7Z"/><path class="cls-2" d="M161.9,22a5.14,5.14,0,0,1,2.4-4.4,10.91,10.91,0,0,1,6.3-1.6,10.58,10.58,0,0,1,6.2,1.7,5.67,5.67,0,0,1,2.3,3.4,1,1,0,0,1-1,1.1h-3.2a1,1,0,0,1-.9-0.6,2.73,2.73,0,0,0-.9-1.2,3.9,3.9,0,0,0-2.5-.7,4.27,4.27,0,0,0-2.4.6,1.76,1.76,0,0,0-.9,1.5c0,0.9.9,1.6,2.8,2l3.9,0.8a9.48,9.48,0,0,1,4.5,1.9,4.24,4.24,0,0,1,1.3,3.4,5.06,5.06,0,0,1-2.5,4.5,12,12,0,0,1-6.6,1.7,11.38,11.38,0,0,1-6.5-1.7,6,6,0,0,1-2.5-3.4,0.89,0.89,0,0,1,1-1.1h3.4a0.87,0.87,0,0,1,.9.6,2.76,2.76,0,0,0,1.1,1.3,5.38,5.38,0,0,0,2.7.7,4.76,4.76,0,0,0,2.6-.6,1.76,1.76,0,0,0,.9-1.5,1.43,1.43,0,0,0-.6-1.2,8.15,8.15,0,0,0-2-.8l-3.8-.8C163.9,26.7,161.9,24.9,161.9,22Z"/><path class="cls-2" d="M210.6,29.7h3.1a1,1,0,0,1,1,1.2,7.1,7.1,0,0,1-2.7,3.3,11.49,11.49,0,0,1-6.4,1.7,10.42,10.42,0,0,1-7.4-2.6,9.81,9.81,0,0,1-2.7-7.3,9.81,9.81,0,0,1,2.7-7.3,9.81,9.81,0,0,1,7.3-2.7,9.68,9.68,0,0,1,7.1,2.6,9.2,9.2,0,0,1,2.6,7v0.7a0.92,0.92,0,0,1-1,.9H200.9v0.3a4.52,4.52,0,0,0,1.3,3.4,4.75,4.75,0,0,0,3.5,1.3,6,6,0,0,0,2.7-.6,3.25,3.25,0,0,0,1.3-1.3A1,1,0,0,1,210.6,29.7Zm-5.2-9.9a4.14,4.14,0,0,0-3.1,1.2,3.47,3.47,0,0,0-1.2,1.9,0.89,0.89,0,0,0,1,1.1h6.6a1,1,0,0,0,1-1.1,4,4,0,0,0-1.1-1.9A4.38,4.38,0,0,0,205.4,19.8Z"/><path class="cls-2" d="M218.1,34.7V16.9a0.92,0.92,0,0,1,1-.9h3.3a1,1,0,0,1,1,.9v2.9h0.1a5.38,5.38,0,0,1,1.8-2.7,5.45,5.45,0,0,1,3.1-1h0.7a1,1,0,0,1,.9.9v2.6a0.9,0.9,0,0,1-1.1.9H228a4.86,4.86,0,0,0-3.3,1.1,4.22,4.22,0,0,0-1.2,3.2v9.9a0.92,0.92,0,0,1-1,.9H219A1,1,0,0,1,218.1,34.7Z"/><path class="cls-2" d="M185,12h3.6a1,1,0,0,1,1,.9v2.7a0.43,0.43,0,0,0,.4.4h2.5a1,1,0,0,1,1,.9V19a0.92,0.92,0,0,1-1,.9H190a0.43,0.43,0,0,0-.4.4v9.3c0,1.5.8,2.2,2.5,2.2h0.4a1,1,0,0,1,1,.9v2a1,1,0,0,1-.9.9,9.72,9.72,0,0,1-1.8.1q-3.6,0-5.1-1.2a4.92,4.92,0,0,1-1.5-4V20.2a0.43,0.43,0,0,0-.4-0.4h-1.4a1,1,0,0,1-1-.9V16.8a0.92,0.92,0,0,1,1-.9h1.4a0.43,0.43,0,0,0,.4-0.4V12.8C184,12.4,184.4,12,185,12Z"/></svg>