<svg id="Layer_1" data-name="Layer 1" xmlns="http://www.w3.org/2000/svg" width="504.19" height="504.48" viewBox="0 0 504.19 504.48"><defs><style>.cls-1{fill:#2394bc;}.cls-2{fill:#44a4c6;}.cls-3{fill:#1f85a9;}.cls-4{fill:#ffcaba;}.cls-5{fill:#ffdcd2;}.cls-6{fill:#e5b5a7;}</style></defs><title>pencil</title><path class="cls-1" d="M492.53,145.77L172.34,461.64S8.5,510.47,1,503,38.43,327.73,38.43,327.73L358.63,11.86a38.53,38.53,0,0,1,55.53,0l78.38,78.77C507.89,105.6,507.89,130.41,492.53,145.77Z" transform="translate(-0.15 0)"/><path class="cls-2" d="M66.39,367.11L418.1,15.41l-3.94-3.94a38.87,38.87,0,0,0-55.53.39L38.82,328.12s-0.79,3.15-2.36,8.67l29.93,30.33h0Z" transform="translate(-0.15 0)"/><path class="cls-3" d="M501.59,132.77a39.84,39.84,0,0,0-8.67-42.54L485,82.36l-351.7,351.7,30.72,30.33q6.5-1.77,8.27-2.36Z" transform="translate(-0.15 0)"/><path class="cls-4" d="M0.62,501.81L3,504.17c18.51,2.76,160.69-39.39,169.35-42.14l0.39-.39s-9.06-42.54-16.93-50c-7.88-7.88-42.14-9.06-50-16.54-7.88-7.88-8.67-42.14-16.93-50-7.88-7.88-48-16.15-50-16.54,0-.39-41.36,153.6-38.21,173.29h0Z" transform="translate(-0.15 0)"/><path class="cls-5" d="M0.23,499.84C3,495.11,16.77,470.69,88.45,345.06c-7.88-7.88-48-16.15-50-16.54C38.82,328.12-.17,473.85.23,499.84Z" transform="translate(-0.15 0)"/><path class="cls-6" d="M0.23,500.23v1.18l2.36,2.36c18.51,2.76,160.69-39.39,169.35-42.14l0.39-.39s-8.66-42.14-16.54-50C25.43,486.05,3.77,498.26.23,500.23Z" transform="translate(-0.15 0)"/><path class="cls-1" d="M27.4,473.06C22.28,467.94,14,464,5.74,463.21,1.41,485.27-1.35,501.42,1,503.78c2,2,16.93-.39,36.63-4.73C37.64,489.21,33.31,479,27.4,473.06Z" transform="translate(-0.15 0)"/></svg>